<?xml version="1.0" encoding="UTF-8" standalone="no"?>
<!-- Created with Inkscape (http://www.inkscape.org/) -->

<svg
   version="1.1"
   id="svg1"
   width="258"
   height="258"
   viewBox="0 0 258 258"
   sodipodi:docname="bolsa-trego.svg"
   inkscape:version="1.4.3 (fcd0343856, 2026-01-01)"
   xmlns:inkscape="http://www.inkscape.org/namespaces/inkscape"
   xmlns:sodipodi="http://sodipodi.sourceforge.net/DTD/sodipodi-0.dtd"
   xmlns="http://www.w3.org/2000/svg"
   xmlns:svg="http://www.w3.org/2000/svg">
  <sodipodi:namedview
     id="namedview1"
     pagecolor="#ffffff"
     bordercolor="#000000"
     borderopacity="0.25"
     inkscape:showpageshadow="2"
     inkscape:pageopacity="0.0"
     inkscape:pagecheckerboard="0"
     inkscape:deskcolor="#d1d1d1"
     inkscape:zoom="2.9418605"
     inkscape:cx="129"
     inkscape:cy="129"
     inkscape:window-width="1920"
     inkscape:window-height="945"
     inkscape:window-x="0"
     inkscape:window-y="32"
     inkscape:window-maximized="1"
     inkscape:current-layer="g1" />
  <defs
     id="defs1" />
  <g
     id="g1">
    <path
       style="fill:#fffefd;fill-opacity:1;stroke:#000000;stroke-width:0.863911;stroke-linecap:round;stroke-miterlimit:4.3;stroke-opacity:0"
       id="path2"
       d="M 258,129 A 129,129 0 0 1 129.18607,257.99987 129,129 0 0 1 5.3679315e-4,129.37215 129,129 0 0 1 128.44178,0.00120778 129,129 0 0 1 257.99785,128.25571" />
    <path
       d="m 111.45458,42.374787 c 7.86703,-7.693665 15.26025,-7.556716 17.35139,-7.639383 6.69669,-0.26473 13.63145,1.204328 19.76023,8.341761 5.30234,6.174971 9.84522,15.275044 12.11052,24.259231 l 0.96148,3.813305 4.19858,-0.427403 c 2.30926,-0.235078 4.90426,-0.576497 5.76671,-0.75871 2.70169,-0.570809 3.1869,0.550845 5.2365,12.104928 2.47222,13.936384 13.8379,75.322874 16.48424,89.031824 2.31296,11.98198 2.23377,12.98716 -1.23325,15.65472 -0.96374,0.74153 -10.78951,4.44829 -21.8351,8.23724 -11.04553,3.78896 -27.37433,9.41401 -36.28623,12.5001 -21.24363,7.35645 -18.70946,7.36169 -44.1675,-0.0914 -10.780538,-3.15611 -20.14143,-6.16251 -20.802006,-6.6809 -3.107094,-2.4384 -3.894263,-6.98495 -2.428534,-14.02689 0.447321,-2.14915 0.697328,-4.05196 0.555516,-4.22849 -0.141806,-0.17653 -1.882606,-1.23941 -17.208988,1.47573 -15.326435,2.71513 -9.156062,1.52653 -11.68997,1.92732 -10.085086,1.59519 -39.90924,7.87717 15.76956,-8.21611 54.331042,-15.70376 78.832442,-22.63286 79.085742,-22.3658 0.0876,0.0924 0.50817,4.50654 0.93458,9.80932 0.4264,5.30277 0.8558,9.74168 0.95427,9.86421 0.0984,0.12256 3.58881,-4.69572 7.7564,-10.70728 4.16758,-6.01156 11.12409,-15.90632 15.45893,-21.98838 4.33489,-6.08204 7.71551,-11.2607 7.51256,-11.50811 -0.44012,-0.53649 -39.67057,-20.05556 -40.30872,-20.05556 -0.24285,0 0.4688,4.0263 1.58145,8.94735 1.11266,4.92105 2.02485,9.12971 2.02706,9.35259 0.007,0.66807 -24.95464,10.79344 -67.423235,27.34975 -2.731067,1.06471 -8.567345,3.41165 -12.969459,5.21542 -4.402114,1.8038 -8.092164,3.1697 -8.200101,3.03532 -0.107883,-0.13437 4.434679,-3.00308 10.094652,-6.37494 20.766304,-12.37127 23.064525,-13.83915 23.316255,-14.89217 0.38392,-1.60583 7.93866,-49.80124 8.65428,-55.20983 0.34863,-2.634984 0.97784,-5.053087 1.43917,-5.531091 0.46922,-0.486137 3.404398,-1.127548 6.864308,-1.500019 l 6.04452,-0.650717 0.39536,-1.95215 c 0.21744,-1.073684 0.88915,-4.441143 1.49265,-7.483244 2.17545,-10.965451 5.63469,-19.513931 10.33536,-25.540636 l 2.41082,-3.090906 m -2.12961,159.913663 c -0.10695,-0.80527 -0.89428,-7.73127 -1.74956,-15.39112 -0.85528,-7.65985 -1.64031,-14.03311 -1.74448,-14.1628 -0.10418,-0.12967 -3.29819,0.67835 -7.0979,1.79562 -7.74699,2.27798 -7.88869,2.42678 -7.88205,8.27916 0.005,3.50642 1.02275,5.77949 3.92558,8.75832 2.33617,2.39729 13.90111,12.18494 14.39762,12.18494 0.18989,0 0.25778,-0.65886 0.15079,-1.46412 z M 97.22061,133.05149 c 2.10065,-0.9488 4.01355,-1.93719 4.25085,-2.19643 0.23725,-0.25923 -0.68959,-9.43189 -2.05977,-20.3837 -1.37014,-10.95179 -2.5925,-19.786161 -2.71639,-19.63193 -0.12387,0.154231 -0.89254,9.0051 -1.7081,19.66859 -0.81556,10.66349 -1.58783,20.48627 -1.71615,21.82837 -0.12832,1.34211 -0.15154,2.44018 -0.0517,2.44018 0.0999,0 1.90045,-0.77629 4.00115,-1.72508 z m 13.55802,-54.561617 2.4209,-0.382297 0.25099,-10.220471 c 0.19434,-7.914213 0.4962,-11.174897 1.33779,-14.450131 l 1.08677,-4.229659 -2.26446,3.075763 c -1.24546,1.691668 -2.87532,4.373337 -3.62188,5.959265 -1.72687,3.668377 -4.33484,13.351173 -4.80867,17.853412 l -0.36441,3.462626 1.77103,-0.343103 c 0.97404,-0.188707 2.86043,-0.51514 4.19194,-0.725405 z m 22.27631,-3.029869 5.35759,-0.727813 v -2.456405 c 0,-4.25833 -1.50954,-12.494791 -2.97198,-16.216039 -0.77426,-1.970228 -2.52805,-4.976884 -3.89724,-6.68145 -3.49817,-4.354962 -5.1964,-4.200429 -7.69533,0.700243 -2.79986,5.490729 -4.28017,15.341632 -3.4894,23.220734 l 0.37446,3.731483 3.48218,-0.421469 c 1.91514,-0.231812 5.89304,-0.748989 8.83972,-1.149284 z m 20.35593,-2.868164 1.14695,-0.290708 -0.98878,-3.578018 c -2.53532,-9.173833 -7.57695,-17.99905 -12.51471,-21.906546 -1.2781,-1.011402 -2.49502,-1.838912 -2.70437,-1.838912 -0.20934,0 0.51188,1.683729 1.60269,3.741621 3.05744,5.768201 4.4732,11.353304 5.53275,21.826351 l 0.31544,3.118241 3.23149,-0.390664 c 1.77736,-0.214866 3.74765,-0.521478 4.37854,-0.681365 z"
       style="fill:#ff6600;fill-opacity:1;stroke:#efc85e;stroke-width:0.583202;stroke-opacity:1"
       id="path1" />
    <text
       xml:space="preserve"
       style="font-style:italic;font-variant:normal;font-weight:bold;font-stretch:normal;font-size:14.5187px;line-height:0px;font-family:'Ubuntu Sans Mono';-inkscape-font-specification:'Ubuntu Sans Mono Bold Italic';text-align:center;letter-spacing:5.38594px;word-spacing:0px;writing-mode:lr-tb;direction:ltr;text-anchor:middle;fill:#ffffff;fill-opacity:1;stroke:#ffffff;stroke-width:0.985203;stroke-linecap:round;stroke-linejoin:bevel;stroke-miterlimit:4.3;stroke-dasharray:none;stroke-opacity:1;paint-order:stroke fill markers"
       x="129.13417"
       y="209.11612"
       id="text44"
       transform="matrix(0.85518779,-0.28762427,0.22490106,1.0936931,0,0)"><tspan
         id="tspan44"
         x="131.82713"
         y="209.11612"
         style="font-style:normal;font-variant:normal;font-weight:bold;font-stretch:normal;font-size:14.5187px;line-height:0px;font-family:'Ubuntu Sans Mono';-inkscape-font-specification:'Ubuntu Sans Mono Bold';letter-spacing:5.38594px;word-spacing:0px;writing-mode:lr-tb;stroke-width:0.985203"
         rotate="350 350 350 350 350 0">TREGO</tspan></text>
  </g>
</svg>
