<svg xmlns="http://www.w3.org/2000/svg" width="258" height="258" viewBox="0 0 258 258">
    <path d="M111.455 42.375c7.867-7.694 15.26-7.557 17.351-7.64 6.697-.264 13.631 1.205 19.76 8.342 5.303 6.175 9.845 15.275 12.11 24.26l.962 3.813 4.199-.428c2.309-.235 4.904-.576 5.766-.758 2.702-.571 3.187.55 5.237 12.105 2.472 13.936 13.838 75.322 16.484 89.031 2.313 11.982 2.234 12.988-1.233 15.655-.964.742-10.79 4.448-21.835 8.237a16128 16128 0 0 0-36.286 12.5c-21.244 7.357-18.71 7.362-44.168-.091-10.78-3.156-20.141-6.163-20.802-6.68-3.107-2.44-3.894-6.986-2.428-14.028 4.952-32.925 11.15-65.601 15.9-98.57.349-2.634.978-5.053 1.44-5.53.469-.487 3.404-1.128 6.864-1.5l6.044-.651.396-1.952c.217-1.074.889-4.442 1.492-7.484 2.176-10.965 5.635-19.514 10.336-25.54zm-2.129 159.913c-.107-.805-.894-7.73-1.75-15.39-.855-7.66-1.62-14.274-1.744-14.163-15.586 13.794-12.321 3.433-18.68 11.977-.63 4.881-.775 7.683.225 10.873 1 3.194 21.302 8.168 21.798 8.168.19 0 .258-.66.151-1.465m-3.494-29.553c.237-.26-5.05-51.312-6.42-62.264-1.37-10.951-2.592-19.786-2.716-19.632-.124.155-.892 9.006-1.708 19.669-.815 10.664-1.588 20.486-1.716 21.828s-6.22 52.376-6.12 52.376c0 0 6.87-4.658 10.59-7.03 5.27-3.358 7.95-4.796 8.09-4.947m4.948-94.245 2.42-.382.252-10.22c.194-7.915.496-11.176 1.337-14.451l1.087-4.23-2.264 3.076c-1.246 1.692-2.876 4.373-3.622 5.96-1.727 3.668-4.335 13.35-4.809 17.853l-.364 3.462 1.77-.343c.975-.188 2.861-.515 4.193-.725m22.276-3.03 5.358-.728v-2.456c0-4.259-1.51-12.495-2.972-16.216-.775-1.97-2.529-4.977-3.898-6.682-3.498-4.355-5.196-4.2-7.695.7-2.8 5.491-4.28 15.342-3.49 23.221l.375 3.732 3.482-.422c1.915-.232 5.893-.749 8.84-1.149m20.356-2.868 1.147-.29-.989-3.579c-2.535-9.174-7.577-17.999-12.515-21.906-1.278-1.012-2.495-1.84-2.704-1.84s.512 1.684 1.603 3.742c3.057 5.768 4.473 11.354 5.532 21.827l.316 3.118 3.231-.39c1.778-.216 3.748-.522 4.379-.682" style="fill:#ff6600;fill-opacity:1;stroke:none;stroke-width:.583202;stroke-opacity:1"/>
    <path d="m122.667 155.565-3.11-8.635-2.134 1.257-.612-1.7 5.877-3.462.612 1.7-2.134 1.257 3.11 8.634zm9.799-2.85-3.67-10.186q.278-.29.641-.576.375-.294.743-.528.362-.25.619-.401 1.388-.818 2.516-.47 1.135.325 1.758 2.055.328.91.3 1.812-.017.896-.554 1.682.508.388 1.103.941.601.532 1.19 1.144.582.596 1.044 1.174l-1.69.996q-.424-.546-.906-1.022-.476-.497-.981-.958-.506-.461-1.034-.91l-.094.056-.081.048-.665.392 1.37 3.802zm-.379-6.466.35-.207q.56-.33.833-.707.28-.4.308-.833.035-.454-.142-.946-.2-.552-.51-.785-.298-.24-.683-.211-.38.007-.8.254-.081.048-.216.145-.14.082-.257.188zm12.066 2.502-3.723-10.334 4.898-2.886.612 1.7-3.3 1.944.838 2.327 2.869-1.69.612 1.7-2.868 1.69 1.047 2.908 3.58-2.11.612 1.7zm14.473-5.333q-1.014.597-1.976.44-.954-.178-1.792-1.13-.843-.968-1.488-2.758-.64-1.774-.603-3.242.043-1.49.616-2.568t1.54-1.649q.642-.378 1.139-.49.496-.112.84-.098.34 0 .506.028l.17 1.888q-.377-.067-.861.002t-.927.33q-.747.44-1.047 1.176-.293.716-.208 1.66.08.928.467 2.002.44 1.223.93 1.911.494.667 1.047.83.548.147 1.13-.197.129-.075.293-.208t.31-.237l-1.358-3.773 1.597-.941 1.859 5.16q-.227.313-.785.842-.548.52-1.399 1.022zm11.174-3.661q-.933.55-1.817.33-.874-.227-1.647-1.236t-1.407-2.768q-.64-1.775-.72-3.174-.085-1.414.348-2.41t1.343-1.532q.944-.557 1.817-.33t1.635 1.242q.768.994 1.407 2.769.634 1.76.72 3.173.096 1.408-.336 2.404-.421.989-1.343 1.532zm-.656-1.783q.548-.323.639-.973.103-.657-.1-1.532-.202-.875-.556-1.86-.366-1.013-.749-1.764-.377-.772-.829-1.084-.445-.334-1.005-.004-.548.323-.65.98-.091.65.11 1.525.198.86.557 1.86.36.998.737 1.77.39.766.846 1.093.452.312 1-.01z" aria-label="TREGO" style="font-weight:700;font-size:14.5187px;line-height:0;font-family:&quot;Ubuntu Sans Mono&quot;;-inkscape-font-specification:&quot;Ubuntu Sans Mono Bold&quot;;text-align:center;letter-spacing:5.38594px;word-spacing:0;text-anchor:middle;fill:#f60;stroke:#fff;stroke-width:.985203;stroke-linecap:round;stroke-linejoin:bevel;stroke-miterlimit:4.3;paint-order:stroke fill markers"/>
</svg>
