<?xml version="1.0" encoding="UTF-8" standalone="no"?>
<!-- Created with Inkscape (http://www.inkscape.org/) -->

<svg
   version="1.1"
   id="svg1"
   width="258"
   height="258"
   viewBox="0 0 258 258"
   sodipodi:docname="tradocolibri.svg"
   inkscape:export-filename="icon-bolsa-trego-verde.png"
   inkscape:export-xdpi="96"
   inkscape:export-ydpi="96"
   inkscape:version="1.4.3 (fcd0343856, 2026-01-01)"
   xmlns:inkscape="http://www.inkscape.org/namespaces/inkscape"
   xmlns:sodipodi="http://sodipodi.sourceforge.net/DTD/sodipodi-0.dtd"
   xmlns="http://www.w3.org/2000/svg"
   xmlns:svg="http://www.w3.org/2000/svg">
  <defs
     id="defs1" />
  <sodipodi:namedview
     id="namedview1"
     pagecolor="#ffffff"
     bordercolor="#000000"
     borderopacity="0.25"
     inkscape:showpageshadow="2"
     inkscape:pageopacity="0.0"
     inkscape:pagecheckerboard="0"
     inkscape:deskcolor="#d1d1d1"
     showgrid="false"
     inkscape:zoom="3.3440259"
     inkscape:cx="130.23224"
     inkscape:cy="124.84951"
     inkscape:window-width="1920"
     inkscape:window-height="945"
     inkscape:window-x="0"
     inkscape:window-y="32"
     inkscape:window-maximized="1"
     inkscape:current-layer="g1">
    <inkscape:page
       x="0"
       y="0"
       width="258"
       height="258"
       id="page2"
       margin="0"
       bleed="0" />
  </sodipodi:namedview>
  <g
     inkscape:groupmode="layer"
     inkscape:label="Image"
     id="g1">
    <path
       d="m 111.45458,42.374787 c 7.86703,-7.693665 15.26025,-7.556716 17.35139,-7.639383 6.69669,-0.26473 13.63145,1.204328 19.76023,8.341761 5.30234,6.174971 9.84522,15.275044 12.11052,24.259231 l 0.96148,3.813305 4.19858,-0.427403 c 2.30926,-0.235078 4.90426,-0.576497 5.76671,-0.75871 2.70169,-0.570809 3.1869,0.550845 5.2365,12.104928 2.47222,13.936384 13.8379,75.322874 16.48424,89.031824 2.31296,11.98198 2.23377,12.98716 -1.23325,15.65472 -0.96374,0.74153 -10.78951,4.44829 -21.8351,8.23724 -11.04553,3.78896 -27.37433,9.41401 -36.28623,12.5001 -21.24363,7.35645 -18.70946,7.36169 -44.1675,-0.0914 -10.780538,-3.15611 -20.14143,-6.16251 -20.802006,-6.6809 -3.107094,-2.4384 -3.894263,-6.98495 -2.428534,-14.02689 0.447321,-2.14915 0.697328,-4.05196 0.555516,-4.22849 -0.141806,-0.17653 -1.882606,-1.23941 -17.208988,1.47573 -15.326435,2.71513 -9.156062,1.52653 -11.68997,1.92732 -10.085086,1.59519 -39.90924,7.87717 15.76956,-8.21611 54.331042,-15.70376 78.832442,-22.63286 79.085742,-22.3658 0.0876,0.0924 0.50817,4.50654 0.93458,9.80932 0.4264,5.30277 0.8558,9.74168 0.95427,9.86421 0.0984,0.12256 3.58881,-4.69572 7.7564,-10.70728 4.16758,-6.01156 11.12409,-15.90632 15.45893,-21.98838 4.33489,-6.08204 7.71551,-11.2607 7.51256,-11.50811 -0.44012,-0.53649 -39.67057,-20.05556 -40.30872,-20.05556 -0.24285,0 0.4688,4.0263 1.58145,8.94735 1.11266,4.92105 2.02485,9.12971 2.02706,9.35259 0.007,0.66807 -24.95464,10.79344 -67.423235,27.34975 -2.731067,1.06471 -8.567345,3.41165 -12.969459,5.21542 -4.402114,1.8038 -8.092164,3.1697 -8.200101,3.03532 -0.107883,-0.13437 4.434679,-3.00308 10.094652,-6.37494 20.766304,-12.37127 23.064525,-13.83915 23.316255,-14.89217 0.38392,-1.60583 7.93866,-49.80124 8.65428,-55.20983 0.34863,-2.634984 0.97784,-5.053087 1.43917,-5.531091 0.46922,-0.486137 3.404398,-1.127548 6.864308,-1.500019 l 6.04452,-0.650717 0.39536,-1.95215 c 0.21744,-1.073684 0.88915,-4.441143 1.49265,-7.483244 2.17545,-10.965451 5.63469,-19.513931 10.33536,-25.540636 l 2.41082,-3.090906 m -2.12961,159.913663 c -0.10695,-0.80527 -0.89428,-7.73127 -1.74956,-15.39112 -0.85528,-7.65985 -1.64031,-14.03311 -1.74448,-14.1628 -0.10418,-0.12967 -3.29819,0.67835 -7.0979,1.79562 -7.74699,2.27798 -7.88869,2.42678 -7.88205,8.27916 0.005,3.50642 1.02275,5.77949 3.92558,8.75832 2.33617,2.39729 13.90111,12.18494 14.39762,12.18494 0.18989,0 0.25778,-0.65886 0.15079,-1.46412 z M 97.22061,133.05149 c 2.10065,-0.9488 4.01355,-1.93719 4.25085,-2.19643 0.23725,-0.25923 -0.68959,-9.43189 -2.05977,-20.3837 -1.37014,-10.95179 -2.5925,-19.786161 -2.71639,-19.63193 -0.12387,0.154231 -0.89254,9.0051 -1.7081,19.66859 -0.81556,10.66349 -1.58783,20.48627 -1.71615,21.82837 -0.12832,1.34211 -0.15154,2.44018 -0.0517,2.44018 0.0999,0 1.90045,-0.77629 4.00115,-1.72508 z m 13.55802,-54.561617 2.4209,-0.382297 0.25099,-10.220471 c 0.19434,-7.914213 0.4962,-11.174897 1.33779,-14.450131 l 1.08677,-4.229659 -2.26446,3.075763 c -1.24546,1.691668 -2.87532,4.373337 -3.62188,5.959265 -1.72687,3.668377 -4.33484,13.351173 -4.80867,17.853412 l -0.36441,3.462626 1.77103,-0.343103 c 0.97404,-0.188707 2.86043,-0.51514 4.19194,-0.725405 z m 22.27631,-3.029869 5.35759,-0.727813 v -2.456405 c 0,-4.25833 -1.50954,-12.494791 -2.97198,-16.216039 -0.77426,-1.970228 -2.52805,-4.976884 -3.89724,-6.68145 -3.49817,-4.354962 -5.1964,-4.200429 -7.69533,0.700243 -2.79986,5.490729 -4.28017,15.341632 -3.4894,23.220734 l 0.37446,3.731483 3.48218,-0.421469 c 1.91514,-0.231812 5.89304,-0.748989 8.83972,-1.149284 z m 20.35593,-2.868164 1.14695,-0.290708 -0.98878,-3.578018 c -2.53532,-9.173833 -7.57695,-17.99905 -12.51471,-21.906546 -1.2781,-1.011402 -2.49502,-1.838912 -2.70437,-1.838912 -0.20934,0 0.51188,1.683729 1.60269,3.741621 3.05744,5.768201 4.4732,11.353304 5.53275,21.826351 l 0.31544,3.118241 3.23149,-0.390664 c 1.77736,-0.214866 3.74765,-0.521478 4.37854,-0.681365 z"
       style="fill:#476dd4;fill-opacity:1;stroke:none;stroke-width:0.583202;stroke-opacity:1"
       id="path1"
       sodipodi:nodetypes="cssscsssssssssssssssssssssscsssssssscscscsssscssssssssssssscsscssscssscssssscssscssssscss" />
    <path
       style="font-weight:bold;font-size:14.5187px;line-height:0px;font-family:'Ubuntu Sans Mono';-inkscape-font-specification:'Ubuntu Sans Mono Bold';text-align:center;letter-spacing:5.38594px;word-spacing:0px;text-anchor:middle;fill:#ffffff;stroke:#ffffff;stroke-width:1;stroke-linecap:round;stroke-linejoin:bevel;stroke-miterlimit:4.3;paint-order:stroke fill markers"
       d="m 101.05304,208.58416 -1.459746,-8.27862 -2.616558,0.46137 -0.28741,-1.62999 7.206254,-1.27065 0.28741,1.62999 -2.61655,0.46136 1.45974,8.27862 z m 11.35738,0.38069 -1.72194,-9.76562 q 0.3684,-0.16816 0.83016,-0.30855 0.47605,-0.14291 0.93107,-0.23788 0.45249,-0.10928 0.76705,-0.16474 1.70148,-0.30002 2.85783,0.32168 1.16813,0.60487 1.46058,2.26345 0.15379,0.87219 -0.0801,1.63583 -0.21961,0.76111 -0.98336,1.27909 0.46756,0.47778 0.99396,1.12209 0.53819,0.6275 1.04356,1.31975 0.50285,0.67795 0.87871,1.30458 l -2.07323,0.36557 q -0.3397,-0.58878 -0.76015,-1.13384 -0.40867,-0.56187 -0.85771,-1.10189 -0.44904,-0.54001 -0.92668,-1.07498 -0.0572,0.0101 -0.11439,0.0202 -0.0429,0.008 -0.10009,0.0177 l -0.81499,0.1437 0.64289,3.64602 z m 1.04032,-5.63822 0.42894,-0.0756 q 0.68631,-0.12101 1.07071,-0.3657 0.39617,-0.26151 0.52405,-0.62315 0.13967,-0.37845 0.0565,-0.85029 -0.0933,-0.52903 -0.38004,-0.81754 -0.27245,-0.29104 -0.70053,-0.37773 -0.41631,-0.10351 -0.93104,-0.0127 -0.10009,0.0177 -0.26914,0.0622 -0.17158,0.0303 -0.32382,0.0866 z m 12.63336,5.61049 -1.74715,-9.9086 6.00522,-1.05888 0.28741,1.62998 -4.04637,0.71349 0.39329,2.2305 3.51734,-0.6202 0.28741,1.62999 -3.51734,0.6202 0.49163,2.78814 4.38952,-0.774 0.28741,1.62999 z m 17.02867,-0.39817 q -1.24394,0.21934 -2.25986,-0.19123 -1.00415,-0.42739 -1.70628,-1.483 -0.70465,-1.06991 -1.00718,-2.78569 -0.30002,-1.70147 0.0702,-2.94617 0.38202,-1.26151 1.25092,-2.01918 0.86891,-0.75766 2.05565,-0.96691 0.7864,-0.13866 1.35494,-0.0915 0.56854,0.0472 0.94195,0.15825 0.37089,0.0968 0.54581,0.16913 l -0.2374,1.66355 q -0.39779,-0.16574 -0.94278,-0.24655 -0.54499,-0.0808 -1.08832,0.015 -0.91508,0.16136 -1.40885,0.70544 -0.48199,0.52727 -0.60069,1.35905 -0.12123,0.81748 0.0603,1.84694 0.20673,1.17245 0.58594,1.90169 0.39099,0.71242 0.95949,1.01023 0.56599,0.28351 1.28089,0.15745 0.15728,-0.0277 0.36671,-0.0941 0.20943,-0.0664 0.39278,-0.11349 l -0.63784,-3.61742 1.95884,-0.3454 0.87231,4.94715 q -0.31794,0.20349 -1.04801,0.49439 -0.71577,0.28838 -1.75953,0.47242 z m 13.04456,0.0832 q -1.14385,0.20169 -2.06221,-0.24083 -0.90406,-0.44504 -1.52292,-1.53007 -0.61885,-1.08504 -0.91635,-2.77222 -0.30002,-1.70147 -0.0728,-2.92096 0.22473,-1.23378 0.92206,-1.96119 0.69732,-0.7274 1.81258,-0.92405 1.15815,-0.20422 2.06221,0.24082 0.90406,0.44504 1.50862,1.5326 0.61634,1.07074 0.91635,2.77221 0.2975,1.68718 0.0728,2.92096 -0.21043,1.23127 -0.90776,1.95867 -0.68303,0.72489 -1.81259,0.92406 z m -0.31683,-1.71325 q 0.67201,-0.1185 0.91767,-0.64832 0.25996,-0.53235 0.23568,-1.33891 -0.0243,-0.80657 -0.19067,-1.75025 -0.17144,-0.97227 -0.42197,-1.7242 -0.23875,-0.76875 -0.66258,-1.16578 -0.41205,-0.41385 -1.09836,-0.29284 -0.67202,0.1185 -0.93197,0.65084 -0.24566,0.52983 -0.22138,1.33639 0.0218,0.79227 0.19067,1.75024 0.16891,0.95798 0.40766,1.72673 0.25305,0.76623 0.67941,1.17756 0.42383,0.39703 1.09584,0.27854 z"
       id="text44"
       transform="matrix(0.85518779,-0.28762427,0.22490106,1.0936931,0,0)"
       aria-label="TREGO" />
  </g>
</svg>
